<?xml version="1.0" encoding="UTF-8"?>
<svg width="28px" height="18px" viewBox="0 0 28 18" version="1.1" xmlns="http://www.w3.org/2000/svg" xmlns:xlink="http://www.w3.org/1999/xlink">
    <title>Group 5</title>
    <g id="Page-1" stroke="none" stroke-width="1" fill="none" fill-rule="evenodd">
        <g id="Live" transform="translate(-58.000000, -767.000000)" stroke="#FFFFFF">
            <g id="You" transform="translate(26.000000, 714.000000)">
                <g id="Group-6" transform="translate(24.000000, 54.000000)">
                    <g id="Group-5" transform="translate(9.000000, 0.000000)">
                        <path d="M17.0511004,16 L1.9488996,16 C0.87698039,16 0,15.114721 0,14.0326585 L0,1.96734147 C0,0.885279 0.87698039,0 1.9488996,0 L17.0511004,0 C18.1230196,0 19,0.885279 19,1.96734147 L19,14.0326585 C19,15.114721 18.1230196,16 17.0511004,16" id="Fill-1"></path>
                        <path d="M21,5.14053538 L21,11.0700029 C24.7681086,13.9834418 25.2755986,14.1424343 25.5969323,13.9395455 C25.8867825,13.7565307 26,13.3246258 26,7.98655101 C26,2.60773748 25.9139525,2.25817682 25.5969323,2.06123165 C25.2752064,1.86137657 24.7862593,1.97820635 21,5.14053538" id="Fill-3"></path>
                    </g>
                </g>
            </g>
        </g>
    </g>
</svg>