<?xml version="1.0" encoding="UTF-8"?>
<svg width="211px" height="24px" viewBox="0 0 211 24" version="1.1" xmlns="http://www.w3.org/2000/svg" xmlns:xlink="http://www.w3.org/1999/xlink">
    <title>Logo</title>
    <g id="Page-1" stroke="none" stroke-width="1" fill="none" fill-rule="evenodd">
        <g id="Live" transform="translate(-1209.000000, -898.000000)">
            <g id="Logo" transform="translate(1209.000000, 898.000000)">
                <path d="M202.42268,6.72212266 L208.917526,6.72212266 C209.51536,6.72212266 210,7.20676288 210,7.80459689 L210,21.8767618 C210,22.4745958 209.51536,22.9592361 208.917526,22.9592361 L158.041237,22.9592361 C157.443403,22.9592361 156.958763,22.4745958 156.958763,21.8767618 L156.958763,7.80459689 C156.958763,7.20676288 157.443403,6.72212266 158.041237,6.72212266 L164.536082,6.72212266 L164.536082,6.72212266" id="Path" stroke="#38B1C8"></path>
                <path d="M170.713797,14.2994423 L170.713797,0 L169.457957,0 L169.457957,14.2994423 L170.713797,14.2994423 Z M175.603113,1.95035639 C175.856818,1.95035639 176.074053,1.85997403 176.254817,1.67920929 C176.435582,1.49844455 176.525964,1.28438104 176.525964,1.03701877 C176.525964,0.783313869 176.435582,0.566079051 176.254817,0.385314312 C176.074053,0.204549573 175.856818,0.114167204 175.603113,0.114167204 C175.355751,0.114167204 175.140101,0.204549573 174.956165,0.385314312 C174.772229,0.566079051 174.680261,0.783313869 174.680261,1.03701877 C174.680261,1.28438104 174.772229,1.49844455 174.956165,1.67920929 C175.140101,1.85997403 175.355751,1.95035639 175.603113,1.95035639 Z M176.221519,14.2994423 L176.221519,4.06244966 L174.975193,4.06244966 L174.975193,14.2994423 L176.221519,14.2994423 Z M184.554879,14.2994423 L188.37948,4.06244966 L187.047529,4.06244966 L183.955501,12.9484637 L183.841334,12.9484637 L180.739791,4.06244966 L179.407841,4.06244966 L183.232442,14.2994423 L184.554879,14.2994423 Z M195.276236,14.4706931 C195.84073,14.4706931 196.356068,14.3993386 196.822251,14.2566296 C197.288433,14.1139205 197.697532,13.9204706 198.049548,13.6762796 C198.401564,13.4320886 198.69491,13.1514276 198.929587,12.8342965 C199.164264,12.5171654 199.332343,12.1841777 199.433825,11.8353334 L199.452853,11.749708 L198.197014,11.749708 L198.158958,11.8258195 C198.051134,12.0922096 197.867198,12.3427432 197.60715,12.5774203 C197.347103,12.8120973 197.022043,12.9992047 196.631972,13.1387423 C196.241901,13.27828 195.799503,13.3480489 195.304778,13.3480489 C194.613432,13.3480489 194.014054,13.1894833 193.506645,12.8723522 C192.999235,12.5552211 192.607578,12.1033092 192.331674,11.5166167 C192.090258,11.0032607 191.954461,10.4012814 191.924284,9.71067881 L191.919433,9.5051639 L199.605076,9.5044197 L199.605076,8.98115335 C199.605076,7.97267639 199.427483,7.0862949 199.072296,6.3220089 C198.717109,5.5577229 198.208114,4.96151639 197.545309,4.53338938 C196.882505,4.10526236 196.091263,3.89119886 195.171583,3.89119886 C194.258245,3.89119886 193.460661,4.11160499 192.778829,4.55241724 C192.096997,4.9932295 191.568974,5.61163519 191.194759,6.4076343 C190.820544,7.20363342 190.633437,8.13441326 190.633437,9.19997382 L190.633437,9.21900169 C190.633437,10.2845623 190.820544,11.2121708 191.194759,12.0018273 C191.568974,12.7914838 192.103339,13.4003755 192.797857,13.8285025 C193.492374,14.2566296 194.3185,14.4706931 195.276236,14.4706931 Z M198.343918,8.48655565 L191.933505,8.48655565 L191.943981,8.33361124 C191.996308,7.75682902 192.127124,7.24961743 192.336431,6.81197648 C192.615506,6.22845522 192.999235,5.78288599 193.487617,5.47526881 C193.975999,5.16765162 194.534149,5.01384303 195.162069,5.01384303 C195.796331,5.01384303 196.352896,5.16289465 196.831764,5.46099791 C197.310632,5.75910116 197.684847,6.19832776 197.954409,6.77867771 C198.15658,7.21394018 198.282937,7.72680066 198.333479,8.31725917 L198.343918,8.48655565 Z" id="live" fill="#FFFFFF" fill-rule="nonzero"></path>
                <g transform="translate(0.000000, 7.804597)" fill-rule="nonzero">
                    <path d="M6.16577346,11.5622101 L10.5982023,3.41576883 L10.5982023,11.281979 L12.3033156,11.281979 L12.3033156,0.198828528 L10.637864,0.198828528 L6.14689491,8.42805738 L1.70875058,0.199348094 L0,0.199348094 L0,11.2824986 L1.70511335,11.2824986 L1.70511335,3.39740984 L6.16577346,11.5622101 Z M17.23299,11.2824988 L17.23299,0.19796276 L15.5183508,0.19796276 L15.5183508,11.2824988 L17.23299,11.2824988 Z M22.1690724,11.2830184 L22.1690724,2.68782658 L29.0049405,11.2830184 L30.7041653,11.2830184 L30.7041653,0.19796276 L28.9988786,0.19796276 L28.9988786,8.81203287 L22.162664,0.199867925 L20.454433,0.199867925 L20.454433,11.2830184 L22.1690724,11.2830184 Z M37.6948702,11.2824988 C41.7052208,11.2824988 44.068132,8.92564933 44.068132,5.75755039 C44.068132,2.57836693 41.7052208,0.170944245 37.6948702,0.184912071 L33.9290724,0.19813586 L33.9290724,11.2824988 L37.6948702,11.2824988 Z M35.6341858,9.72668025 L35.6341858,1.73386366 L37.6903672,1.74183079 C40.8664333,1.75811125 42.3564374,3.42737319 42.3564374,5.76084115 C42.3564374,8.08859362 40.8664333,9.71663486 37.6903672,9.72338949 L35.6341858,9.72668025 Z M48.3467631,11.2824988 L48.3467631,6.11190927 L53.0665238,6.11190927 L53.0665238,4.59713802 L48.3467631,4.58969072 L48.3467631,1.75967021 L54.9855342,1.75967021 L54.9855342,0.197963024 L46.6416497,0.197963024 L46.6416497,11.2824988 L48.3467631,11.2824988 Z M62.1418149,11.4146474 C65.5312579,11.4146474 67.2864248,9.34790096 67.2864248,5.96607837 L67.2864248,0.19796276 L65.5451136,0.19796276 L65.5451136,5.96607837 C65.5451136,8.43896907 64.4915631,9.82245782 62.1418146,9.82245782 C59.8014187,9.82245782 58.7385157,8.43896907 58.7385157,5.95672565 L58.7385157,0.19796276 L57.0160827,0.19796276 L57.0160827,5.95672565 C57.0160827,9.36522054 58.7430189,11.4146474 62.1418149,11.4146474 Z M78.2507632,11.2824988 L78.2507632,9.71854003 L72.0053198,9.71854003 L72.0148456,0.19796276 L70.3002064,0.19796276 L70.3002064,11.2824988 L78.2507632,11.2824988 Z" id="MINDFUL" fill="#FFFFFF"></path>
                    <path d="M85.4461864,11.39369 C87.9956291,11.3810471 89.7963466,10.2204616 89.7815435,8.37315432 C89.7688085,6.75256038 88.6877199,5.95915011 86.3513076,5.4180861 L84.7390273,5.0438098 C82.925147,4.61826741 82.0302439,4.07547159 82.0169077,2.98676231 C82.0014933,1.72433757 83.3167428,1.03345923 85.22311,0.999859191 C86.5435554,0.97924884 87.8245123,1.38539312 88.8810071,2.05271681 L89.3993822,1.27091063 C88.2474566,0.543141486 86.7120752,0.0737805553 85.1404957,0.0891949778 C82.6901206,0.11378876 80.9455186,1.20457632 80.9605865,2.96095576 C80.9742689,4.54656406 82.1720916,5.39730212 84.4409576,5.92710824 L85.9929659,6.29185872 C87.9327597,6.75065469 88.7595969,7.19524847 88.7563061,8.38441142 C88.7538814,9.70537644 87.3981041,10.4580858 85.4844628,10.4821601 C83.9224091,10.5003457 82.2444874,10.0616405 80.9843143,9.28814764 L80.4418647,10.0699538 C81.7463761,10.901294 83.6089245,11.403389 85.4461864,11.39369 Z M96.2032087,11.2824988 L96.2032087,1.11659357 L100.413427,1.11659357 L100.413427,0.19796276 L90.980487,0.19796276 L90.9855096,1.11659357 L95.2080251,1.11659357 L95.2080251,11.2824988 L96.2032087,11.2824988 Z M107.361699,11.4013112 C110.679439,11.4013112 112.365848,9.41960404 112.365848,6.0646266 L112.365848,0.19796276 L111.345897,0.19796276 L111.345897,6.0646266 C111.345897,8.91854823 110.052124,10.4677853 107.361699,10.4677853 C104.676124,10.4677853 103.377328,8.91854823 103.377328,6.05977714 L103.377328,0.19796276 L102.367423,0.19796276 L102.367423,6.05977714 C102.367423,9.43692363 104.038936,11.4013112 107.361699,11.4013112 Z M119.344429,11.2824988 C123.383357,11.2824988 125.618969,8.86035441 125.618969,5.75755039 C125.618969,2.63240395 123.383357,0.183760571 119.344429,0.191018601 L115.582268,0.197962495 L115.582268,11.2824988 L119.344429,11.2824988 Z M116.574854,10.3763376 L116.574854,1.10187155 L119.342178,1.10602835 C122.894252,1.11451504 124.62292,3.1350182 124.62292,5.75910882 C124.62292,8.37211492 122.894252,10.3711417 119.342178,10.3746056 L116.574854,10.3763376 Z M129.413691,11.2824988 L129.413691,0.19796276 L128.416083,0.19796276 L128.416083,11.2824988 L129.413691,11.2824988 Z M138.120421,11.4839257 C141.551258,11.4839257 144.054285,8.90884957 144.054285,5.75010309 C144.054285,2.56901446 141.551258,0 138.120421,0 C134.712099,0 132.209072,2.56901446 132.209072,5.75010309 C132.209072,8.90884957 134.712099,11.4839257 138.120421,11.4839257 Z M138.118169,10.5429525 C135.303217,10.5429525 133.200445,8.40935246 133.200445,5.75166179 C133.200445,3.07162871 135.303217,0.938028665 138.118169,0.938028665 C140.955464,0.938028665 143.058235,3.07162871 143.058235,5.75166179 C143.058235,8.40935246 140.955464,10.5429525 138.118169,10.5429525 Z" id="studio" fill="#BFBEBE"></path>
                </g>
            </g>
        </g>
    </g>
</svg>